# xmcd
#
# Track frame offsets:
#	182
#	11640
#	28755
#	48252
#	67725
#	79782
#	97852
#	116230
#	133552
#	147117
#	169062
#	183412
#	199445
#	220217
#	236050
#
# Disc length: 3464 seconds
# Revision: 24
# Processed by: cddbd v1.5.2PL0 Copyright (c) Steve Scherf et al.
# Submitted via: dBpowerAMP V12.0
#
DISCID=cf0d860f
DTITLE=Travis Tritt - Greatest Hits: From the Beginning
DYEAR=1995
DGENRE=Country
TTITLE0=Here's a Quarter (Call Someone Who Cares)
TTITLE1=Anymore
TTITLE2=Put Some Drive in Your Country
TTITLE3=Foolish Pride
TTITLE4=The Whiskey Ain't Workin'
TTITLE5=Help Me Hold On
TTITLE6=I'm Gonna Be Somebody
TTITLE7=Only You (And You Alone)
TTITLE8=T-R-O-U-B-L-E
TTITLE9=Tell Me I Was Dreaming
TTITLE10=Country Club
TTITLE11=Can I Trust You with My Heart
TTITLE12=Sometimes She Forgets
TTITLE13=Ten Feet Tall and Bulletproof
TTITLE14=Drift off to Dream
EXTD=
EXTT0=
EXTT1=
EXTT2=
EXTT3=
EXTT4=
EXTT5=
EXTT6=
EXTT7=
EXTT8=
EXTT9=
EXTT10=
EXTT11=
EXTT12=
EXTT13=
EXTT14=
PLAYORDER=
